<svg xmlns="http://www.w3.org/2000/svg">
    <symbol id="evernote" viewBox="0 0 20 20"><path d="M17.3 4.3c0-1.2-1.7-1.3-1.7-1.3l-4.1-.3s-.1-1.1-.9-1.5C9.8.9 8.9 1 8.3 1c-.7 0-.8.9-.8 1.6v2.2c0 1-.4 1.4-1.6 1.4H3.6c-.6 0-1.1.1-1.1.6s.8 5 1.8 6c.6.6 4.3 1 5.1 1s.5-2.3.7-2.3.5 1.3 1.7 1.6c1.2.3 2.9.2 3 1.1.1 1.2.2 2.6-.5 2.7l-1.7.1c-1.2-.1-.9-1.4-.3-1.4h.8l.1-1.4s-2.7-.3-2.8 1.5c-.1 1.7.2 2.4.4 2.6.2.2.6.5 3.9.5 4.3.2 2.6-13.3 2.6-14.5zm-1.9 6c-.1.2-.8-.3-1.4-.3-.6 0-1.3.3-1.5.1-.2-.2.1-2 1.3-2s1.8 2 1.6 2.2zM5.3 4.6H2.4l3.5-3.4s-.1 2.8-.1 3c0 .2-.1.4-.5.4z"/></symbol>
    <symbol id="facebook" viewBox="0 0 20 20"><path d="M17 1H3c-1.1 0-2 .9-2 2v14c0 1.101.9 2 2 2h7v-7H8V9.525h2v-2.05c0-2.164 1.212-3.684 3.766-3.684l1.803.002v2.605h-1.197c-.994 0-1.372.746-1.372 1.438v1.69h2.568L15 12h-2v7h4c1.1 0 2-.899 2-2V3c0-1.1-.9-2-2-2z"/></symbol>
    <symbol id="github" viewBox="0 0 20 20"><path d="M13.18 11.309c-.718 0-1.3.807-1.3 1.799 0 .994.582 1.801 1.3 1.801s1.3-.807 1.3-1.801c-.001-.992-.582-1.799-1.3-1.799zm4.526-4.683c.149-.365.155-2.439-.635-4.426 0 0-1.811.199-4.551 2.08-.575-.16-1.548-.238-2.519-.238-.973 0-1.945.078-2.52.238C4.74 2.399 2.929 2.2 2.929 2.2c-.789 1.987-.781 4.061-.634 4.426C1.367 7.634.8 8.845.8 10.497c0 7.186 5.963 7.301 7.467 7.301l1.734.002 1.732-.002c1.506 0 7.467-.115 7.467-7.301 0-1.652-.566-2.863-1.494-3.871zm-7.678 10.289h-.056c-3.771 0-6.709-.449-6.709-4.115 0-.879.31-1.693 1.047-2.369C5.537 9.304 7.615 9.9 9.972 9.9h.056c2.357 0 4.436-.596 5.664.531.735.676 1.045 1.49 1.045 2.369 0 3.666-2.937 4.115-6.709 4.115zm-3.207-5.606c-.718 0-1.3.807-1.3 1.799 0 .994.582 1.801 1.3 1.801.719 0 1.301-.807 1.301-1.801 0-.992-.582-1.799-1.301-1.799z"/></symbol>
    <symbol id="pinterest" viewBox="0 0 20 20"><path d="M8.617 13.227C8.091 15.981 7.45 18.621 5.549 20c-.586-4.162.861-7.287 1.534-10.605-1.147-1.93.138-5.812 2.555-4.855 2.975 1.176-2.576 7.172 1.15 7.922 3.891.781 5.479-6.75 3.066-9.199C10.369-.275 3.708 3.18 4.528 8.245c.199 1.238 1.478 1.613.511 3.322-2.231-.494-2.897-2.254-2.811-4.6.138-3.84 3.449-6.527 6.771-6.9 4.201-.471 8.144 1.543 8.689 5.494.613 4.461-1.896 9.293-6.389 8.945-1.218-.095-1.728-.699-2.682-1.279z"/></symbol>
    <symbol id="twitter" viewBox="0 0 20 20"><path d="M17.316 6.246c.008.162.011.326.011.488 0 4.99-3.797 10.742-10.74 10.742-2.133 0-4.116-.625-5.787-1.697a7.577 7.577 0 0 0 5.588-1.562 3.779 3.779 0 0 1-3.526-2.621 3.858 3.858 0 0 0 1.705-.065 3.779 3.779 0 0 1-3.028-3.703v-.047a3.766 3.766 0 0 0 1.71.473 3.775 3.775 0 0 1-1.168-5.041 10.716 10.716 0 0 0 7.781 3.945 3.813 3.813 0 0 1-.097-.861 3.773 3.773 0 0 1 3.774-3.773 3.77 3.77 0 0 1 2.756 1.191 7.602 7.602 0 0 0 2.397-.916 3.789 3.789 0 0 1-1.66 2.088 7.55 7.55 0 0 0 2.168-.594 7.623 7.623 0 0 1-1.884 1.953z"/></symbol>
    <symbol id="youtube" viewBox="0 0 20 20"><path d="M10 2.3C.172 2.3 0 3.174 0 10s.172 7.7 10 7.7 10-.874 10-7.7-.172-7.7-10-7.7zm3.205 8.034l-4.49 2.096c-.393.182-.715-.022-.715-.456V8.026c0-.433.322-.638.715-.456l4.49 2.096c.393.184.393.484 0 .668z"/></symbol>
</svg>
